<svg xmlns="http://www.w3.org/2000/svg" id="Layer_1" enable-background="new 0 0 64 64" viewBox="0 0 64 64"><polyline fill="#cecece" points="51.5 1 17.1 1 17.1 59 61.7 59 61.7 11.2"/><polyline fill="#e7e7e7" points="49 1 17.1 1 17.1 55.5 58.4 55.5 58.4 10.6"/><path fill="#193651" d="M61.7,60H17.1c-0.5,0-1-0.4-1-1V1c0-0.5,0.4-1,1-1h34.4c0.5,0,1,0.4,1,1c0,0.5-0.4,1-1,1H18.1V58h42.6V11.2
		c0-0.5,0.4-1,1-1c0.5,0,1,0.4,1,1V59C62.7,59.5,62.2,60,61.7,60z"/><path fill="#db8d37" d="M15.5,46.2l-11,9.6c-0.6,0.5-1.1,1-1.4,1.6c-1,1.8-1,3.7,0.1,4.8c1.4,1.4,4.1,0.9,5.9-1.1l9.5-11.9"/><path fill="#ef9d3a" d="M15.1,46.1L4.6,55.5c-0.5,0.4-1,0.8-1.4,1.3c-1,1.4-1,1.5-0.6,3.2c0.3,1.7,3.8,1.6,5.7-0.9l8.3-10.2"/><path fill="#193651" d="M5.2,64c-1,0-2-0.3-2.7-1c-1.5-1.4-1.6-3.8-0.3-6c0.4-0.7,0.9-1.3,1.6-1.9l11-9.6c0.4-0.4,1-0.3,1.4,0.1
		c0.4,0.4,0.3,1-0.1,1.4l-11,9.6c-0.6,0.5-1,0.9-1.2,1.4c-0.8,1.4-0.8,2.9,0,3.6c1,1,3.1,0.5,4.6-1.1l9.5-11.8
		c0.3-0.4,0.9-0.5,1.4-0.1c0.4,0.3,0.5,0.9,0.2,1.4L9.9,61.8C8.5,63.2,6.8,64,5.2,64z"/><polygon fill="#b4b5b4" points="51.5 1 51.5 11.2 61.7 11.2"/><path fill="#193651" d="M61.7 12.2H51.5c-.5 0-1-.4-1-1V1c0-.4.2-.7.6-.9.4-.2.8-.1 1.1.2l10.2 10.2c.3.3.4.7.2 1.1C62.4 11.9 62.1 12.2 61.7 12.2zM52.5 10.2h6.9l-6.9-6.9V10.2zM46.7 9.8H23c-.5 0-1-.4-1-1s.4-1 1-1h23.7c.5 0 1 .4 1 1S47.3 9.8 46.7 9.8zM55.8 18.2H23c-.5 0-1-.4-1-1s.4-1 1-1h32.8c.5 0 1 .4 1 1S56.3 18.2 55.8 18.2zM55.8 26.7H44.4c-.5 0-1-.4-1-1 0-.5.4-1 1-1h11.4c.5 0 1 .4 1 1C56.8 26.3 56.3 26.7 55.8 26.7zM55.8 35.2h-9.1c-.5 0-1-.4-1-1 0-.5.4-1 1-1h9.1c.5 0 1 .4 1 1C56.8 34.8 56.3 35.2 55.8 35.2zM55.8 43.7H45.5c-.5 0-1-.4-1-1 0-.5.4-1 1-1h10.3c.5 0 1 .4 1 1C56.8 43.2 56.3 43.7 55.8 43.7zM55.8 52.2H42.1c-.5 0-1-.4-1-1s.4-1 1-1h13.7c.5 0 1 .4 1 1S56.3 52.2 55.8 52.2z"/><path fill="#ea9898" d="M37.4,26.4c-6-5.6-15.3-5.4-21,0.6c-4.8,5-5.3,12.5-1.8,18.1c0.6,1,1.4,2,2.4,2.9c0.9,0.8,1.8,1.5,2.8,2.1
		c5.8,3.4,13.4,2.5,18.2-2.6C43.6,41.4,43.4,32,37.4,26.4z"/><path fill="#fca4a4" d="M36.2,27.6c-5.2-5-13.5-4.7-18.5,0.5c-4.2,4.4-4.7,11-1.6,16c0.6,0.9,1.3,1.7,2.1,2.5
		c0.8,0.7,1.6,1.3,2.5,1.8c5.1,3,11.8,2.2,16.1-2.3C41.7,40.9,41.5,32.6,36.2,27.6z"/><path fill="#193651" d="M27.3,53c-2.7,0-5.4-0.7-7.9-2.1c-1.1-0.6-2.1-1.3-3-2.2c-0.9-0.9-1.8-1.9-2.5-3c-3.9-6.1-3.1-14.1,1.9-19.3
		c6-6.3,16-6.6,22.4-0.6c3.1,2.9,4.8,6.8,4.9,11c0.1,4.2-1.4,8.2-4.3,11.3C35.6,51.3,31.5,53,27.3,53z M27.2,23.3
		c-3.7,0-7.4,1.5-10.1,4.3c-4.4,4.6-5,11.6-1.7,16.9c0.6,1,1.4,1.9,2.2,2.7c0.8,0.8,1.7,1.4,2.6,1.9c5.6,3.2,12.6,2.2,17-2.5
		c2.5-2.7,3.9-6.2,3.8-9.9c-0.1-3.7-1.6-7.1-4.3-9.7c0,0,0,0,0,0C34.1,24.5,30.7,23.3,27.2,23.3z"/><path fill="#d7d7d7" d="M37.5,37.4c0,3.3-1.5,6.2-3.9,8.1c-0.2,0.2-0.5,0.4-0.7,0.5c0,0-0.1,0.1-0.1,0.1c-1.6,1-3.5,1.6-5.6,1.6
		c-2.1,0-4-0.6-5.6-1.6c-0.1,0-0.1-0.1-0.1-0.1c-0.2-0.2-0.5-0.3-0.7-0.5c-2.4-1.9-3.9-4.8-3.9-8.1c0-5.7,4.6-10.3,10.3-10.3
		C32.9,27.1,37.5,31.7,37.5,37.4z"/><path fill="#e7e7e7" d="M35.5,37.4c0,2.6-1.2,4.9-3.1,6.4c-0.2,0.2-0.4,0.3-0.6,0.4c0,0-0.1,0-0.1,0.1c-1.3,0.8-2.8,1.3-4.4,1.3
		c-1.6,0-3.2-0.5-4.4-1.3c0,0-0.1,0-0.1-0.1c-0.2-0.1-0.4-0.3-0.6-0.4C20.2,42.4,19,40,19,37.4c0-4.6,3.7-8.2,8.2-8.2
		C31.8,29.2,35.5,32.9,35.5,37.4z"/><path fill="#193651" d="M27.2,48.7c-2.2,0-4.3-0.6-6.1-1.8c0,0,0,0,0,0c0,0,0,0-0.1-0.1c-0.3-0.2-0.6-0.4-0.9-0.6
		c-2.7-2.1-4.2-5.4-4.2-8.8c0-6.2,5.1-11.3,11.3-11.3s11.3,5.1,11.3,11.3c0,3.4-1.5,6.7-4.2,8.8c-0.2,0.2-0.5,0.4-0.8,0.6
		c-0.1,0-0.1,0.1-0.2,0.1C31.5,48.1,29.4,48.7,27.2,48.7z M22.2,45.3c3,1.9,7.1,1.9,10.1,0c0,0,0.1,0,0.1-0.1c0,0,0.1,0,0.1,0
		c0.2-0.1,0.4-0.3,0.6-0.5c2.2-1.8,3.5-4.5,3.5-7.3c0-5.2-4.2-9.3-9.3-9.3s-9.3,4.2-9.3,9.3c0,2.9,1.3,5.5,3.5,7.3
		c0.2,0.2,0.4,0.3,0.6,0.5l-0.4,0.9L22.2,45.3z M32.8,46.1L32.8,46.1L32.8,46.1z"/><g><path fill="#f9ecb9" d="M29.7,34.2c0,1.4-1.1,2.5-2.5,2.5s-2.5-1.1-2.5-2.5c0-1.4,1.1-2.5,2.5-2.5S29.7,32.9,29.7,34.2z"/><path fill="#193651" d="M27.2,37.6c-1.9,0-3.4-1.5-3.4-3.4c0-1.9,1.5-3.4,3.4-3.4c1.9,0,3.4,1.5,3.4,3.4
			C30.7,36.1,29.1,37.6,27.2,37.6z M27.2,32.7c-0.8,0-1.5,0.7-1.5,1.5c0,0.8,0.7,1.5,1.5,1.5c0.8,0,1.5-0.7,1.5-1.5
			C28.7,33.4,28.1,32.7,27.2,32.7z"/></g><path fill="#a4d8ea" d="M34,43.9c0,0.5-0.1,1.1-0.4,1.6c-0.2,0.2-0.5,0.4-0.7,0.5c0,0-0.1,0.1-0.1,0.1c-1.6,1-3.5,1.6-5.6,1.6
		c-2.1,0-4-0.6-5.6-1.6c-0.1,0-0.1-0.1-0.1-0.1c-0.2-0.2-0.5-0.3-0.7-0.5c-0.2-0.5-0.4-1-0.4-1.6c0-2.2,2.2-4.1,5.1-4.6l1.7,2.7
		l1.7-2.7C31.9,39.8,34,41.7,34,43.9z"/><path fill="#b7e7f9" d="M32.7,42.3c-0.1-0.2-0.2-0.5-0.3-0.7h0v0c-0.1-0.1-0.1-0.3-0.2-0.4c-0.2-0.1-0.4-0.2-0.5-0.2
		c-0.4-0.2-0.8-0.6-1.2-1c0,0-0.1,0-0.1,0h-0.5c-0.2,0.1-0.4,0.2-0.7,0.3c-0.4,0.1-0.9,0.1-1.3,0.2c-0.2,0-0.3,0-0.5,0v0.4h-1.4
		v-0.5c-0.2,0-0.4-0.1-0.6-0.1c-0.3-0.1-0.5-0.1-0.7-0.3H24c0,0,0,0,0,0c-0.5,0.5-1.1,0.8-1.7,1c0,0,0,0.1-0.1,0.1
		c-0.3,0.5-0.7,1-1.2,1.3v1h-0.2c0.2,0.2,0.4,0.3,0.6,0.5c0,0,0.1,0.1,0.1,0.1c1.6,1,3.5,1.6,5.6,1.6c2.1,0,4-0.6,5.6-1.6
		c0,0,0.1-0.1,0.1-0.1c0.1-0.1,0.2-0.1,0.3-0.2c-0.1-0.4-0.3-0.8-0.3-1.2C32.8,42.5,32.8,42.4,32.7,42.3z"/><path fill="#193651" d="M29.1,38.3c-0.4-0.1-0.8,0.1-1,0.4l-0.9,1.4l-0.9-1.4c-0.2-0.3-0.6-0.5-1-0.4c-3.5,0.6-5.9,2.9-5.9,5.6
		c0,0.7,0.2,1.4,0.5,2c0.1,0.1,0.1,0.2,0.2,0.3c0.3,0.2,0.5,0.4,0.9,0.6c0,0,0.1,0.1,0.1,0.1c0,0,0,0,0,0c1.8,1.2,3.9,1.8,6.1,1.8
		c2.1,0,4.2-0.6,6-1.8c0.1,0,0.1-0.1,0.2-0.1c0.3-0.2,0.6-0.4,0.8-0.6c0.1-0.1,0.2-0.2,0.2-0.3c0.3-0.6,0.5-1.3,0.5-2
		C35,41.3,32.6,39,29.1,38.3z M32.9,44.9c-0.2,0.1-0.3,0.2-0.4,0.3c0,0,0,0-0.1,0c0,0-0.1,0-0.1,0.1c-3,1.9-7.1,1.9-10.1,0L22,45.2
		c-0.2-0.1-0.3-0.2-0.5-0.3c-0.1-0.3-0.2-0.6-0.2-1c0-1.5,1.5-2.9,3.7-3.5l1.3,2.2c0.4,0.6,1.3,0.6,1.7,0l1.3-2.2
		c2.2,0.6,3.7,2,3.7,3.5C33.1,44.2,33,44.6,32.9,44.9z"/></svg>